<svg xmlns="http://www.w3.org/2000/svg" xmlns:xlink="http://www.w3.org/1999/xlink" version="1.1" width="374.1365pt" height="329.90937pt" viewBox="0 0 374.1365 329.90937">
<defs>
<clipPath id="clip_0">
<path transform="matrix(1,0,0,-1,0,329.90937)" d="M63.278127 45.509378H342.27815V322.70939H63.278127Z"/>
</clipPath>
<clipPath id="clip_1">
<path transform="matrix(1,0,0,-1,0,329.90937)" d="M63.278127 45.509378H342.27815V322.70939H63.278127Z"/>
</clipPath>
<clipPath id="clip_2">
<path transform="matrix(1,0,0,-1,0,329.90937)" d="M63.278127 45.509378H342.27815V322.70939H63.278127Z"/>
</clipPath>
<clipPath id="clip_3">
<path transform="matrix(.015,0,0,-.015,324.44285,319.58436)" d="M-836-390H1796V1146H-836Z"/>
</clipPath>
</defs>
<path transform="matrix(1,0,0,-1,0,329.90937)" d="M0 0H374.1365V329.90937H0Z" fill="#ffffff"/>
<path transform="matrix(1,0,0,-1,0,329.90937)" d="M63.278127 45.509378H342.27815V322.70939H63.278127Z" fill="#ffffff"/>
<g clip-path="url(#clip_0)">
<path transform="matrix(1,0,0,-1,0,329.90937)" d="M75.959949-575.49319H118.23267V279.93785H75.959949Z" fill="#b4826e"/>
</g>
<g clip-path="url(#clip_1)">
<path transform="matrix(1,0,0,-1,0,329.90937)" d="M181.64176-575.49319H223.91449V186.78745H181.64176Z" fill="#e56040"/>
</g>
<g clip-path="url(#clip_2)">
<path transform="matrix(1,0,0,-1,0,329.90937)" d="M287.32359-575.49319H329.5963V143.31728H287.32359Z" fill="#e9c257"/>
</g>
<path transform="matrix(1,0,0,-1,0,329.90937)" d="M97.096309 45.509378V42.009378"/>
<path transform="matrix(1,0,0,-1,0,329.90937)" stroke-width=".8" stroke-linecap="butt" stroke-linejoin="round" fill="none" stroke="#000000" d="M97.096309 45.509378V42.009378"/>
<text xml:space="preserve" transform="matrix(1 0 -0 1 59.721307 302.79063)" font-size="15" font-family="DejaVuSerif"><tspan y="0" x="0 11.940001 22.845002 32.565004 39.495004 52.305006 63.585008">ChatGPT</tspan></text>
<text xml:space="preserve" transform="matrix(1 0 -0 1 57.54943 319.58436)" font-size="15" font-family="DejaVuSerif"><tspan y="0" x="0 9.837501 19.377503 28.917504 39.402505 49.887506 59.607507 68.74251">Feedback</tspan></text>
<path transform="matrix(1,0,0,-1,0,329.90937)" d="M202.77812 45.509378V42.009378"/>
<path transform="matrix(1,0,0,-1,0,329.90937)" stroke-width=".8" stroke-linecap="butt" stroke-linejoin="round" fill="none" stroke="#000000" d="M202.77812 45.509378V42.009378"/>
<text xml:space="preserve" transform="matrix(1 0 -0 1 190.91875 302.79063)" font-size="15" font-family="DejaVuSerif"><tspan y="0" x="0 13.710001">No</tspan></text>
<text xml:space="preserve" transform="matrix(1 0 -0 1 163.23125 319.58436)" font-size="15" font-family="DejaVuSerif"><tspan y="0" x="0 9.837501 19.377503 28.917504 39.402505 49.887506 59.607507 68.74251">Feedback</tspan></text>
<path transform="matrix(1,0,0,-1,0,329.90937)" d="M308.45994 45.509378V42.009378"/>
<path transform="matrix(1,0,0,-1,0,329.90937)" stroke-width=".8" stroke-linecap="butt" stroke-linejoin="round" fill="none" stroke="#000000" d="M308.45994 45.509378V42.009378"/>
<text xml:space="preserve" transform="matrix(1 0 -0 1 249.98339 302.79063)" font-size="15" font-family="DejaVuSerif"><tspan y="0" x="0 10.830001 21.480002 32.64 37.86 47.697504 57.237504 66.777507 77.262508 87.747509 97.46751 106.60251">SFT Feedback</tspan></text>
<text xml:space="preserve" transform="matrix(1 0 -0 1 271.80369 319.58436)" font-size="15" font-family="DejaVuSerif"><tspan y="0" x="0 7.0950005 20.16 31.065 38.97 47.415 66.21094">(Ours,)</tspan></text>
<g clip-path="url(#clip_3)">
<path transform="matrix(.015,0,0,-.015,324.44285,319.58436)" d="M539 52C549 54 557 56 563 59 595 73 620 92 638 116 658 142 668 198 668 282 668 346 661 393 648 424 632 460 613 478 591 478 556 478 539 438 539 359V52ZM539 0V-207H366L365 0C296 3 252 8 233 16 193 32 162 48 140 66 118 83 95 113 71 155 55 183 47 223 47 274 47 331 63 381 97 423 131 465 176 497 234 519H297V498C287 489 273 464 256 424 242 390 236 343 236 282 236 208 246 152 266 116 284 82 308 63 338 59 352 57 361 55 366 55V359C366 442 408 495 492 519 559 537 618 537 670 519 735 493 781 461 807 423 840 373 857 323 857 274 857 223 849 183 833 155 809 113 786 83 764 66 744 50 713 34 671 16 651 7 607 2 539 0Z"/>
</g>
<path transform="matrix(1,0,0,-1,0,329.90937)" d="M63.278127 45.509378H59.778127"/>
<path transform="matrix(1,0,0,-1,0,329.90937)" stroke-width=".8" stroke-linecap="butt" stroke-linejoin="round" fill="none" stroke="#000000" d="M63.278127 45.509378H59.778127"/>
<text xml:space="preserve" transform="matrix(1 0 -0 1 30.840626 292.00157)" font-size="20" font-family="DejaVuSerif"><tspan y="0" x="0 12.720001">40</tspan></text>
<path transform="matrix(1,0,0,-1,0,329.90937)" d="M63.278127 107.60963H59.778127"/>
<path transform="matrix(1,0,0,-1,0,329.90937)" stroke-width=".8" stroke-linecap="butt" stroke-linejoin="round" fill="none" stroke="#000000" d="M63.278127 107.60963H59.778127"/>
<text xml:space="preserve" transform="matrix(1 0 -0 1 30.840626 229.9013)" font-size="20" font-family="DejaVuSerif"><tspan y="0" x="0 12.720001">44</tspan></text>
<path transform="matrix(1,0,0,-1,0,329.90937)" d="M63.278127 169.70989H59.778127"/>
<path transform="matrix(1,0,0,-1,0,329.90937)" stroke-width=".8" stroke-linecap="butt" stroke-linejoin="round" fill="none" stroke="#000000" d="M63.278127 169.70989H59.778127"/>
<text xml:space="preserve" transform="matrix(1 0 -0 1 30.840626 167.80104)" font-size="20" font-family="DejaVuSerif"><tspan y="0" x="0 12.720001">48</tspan></text>
<path transform="matrix(1,0,0,-1,0,329.90937)" d="M63.278127 231.81014H59.778127"/>
<path transform="matrix(1,0,0,-1,0,329.90937)" stroke-width=".8" stroke-linecap="butt" stroke-linejoin="round" fill="none" stroke="#000000" d="M63.278127 231.81014H59.778127"/>
<text xml:space="preserve" transform="matrix(1 0 -0 1 30.840626 105.70079)" font-size="20" font-family="DejaVuSerif"><tspan y="0" x="0 12.720001">52</tspan></text>
<path transform="matrix(1,0,0,-1,0,329.90937)" d="M63.278127 293.91038H59.778127"/>
<path transform="matrix(1,0,0,-1,0,329.90937)" stroke-width=".8" stroke-linecap="butt" stroke-linejoin="round" fill="none" stroke="#000000" d="M63.278127 293.91038H59.778127"/>
<text xml:space="preserve" transform="matrix(1 0 -0 1 30.840626 43.600557)" font-size="20" font-family="DejaVuSerif"><tspan y="0" x="0 12.720001">56</tspan></text>
<text xml:space="preserve" transform="matrix(0 -1 1 0 22.403126 263.60469)" font-size="20" font-family="DejaVuSerif"><tspan y="0" x="0 13.6431269 24.943127 36.783128 46.34313 58.26313 71.06313 82.90314 89.26314 101.83251 113.75251 124.01251 134.2725 140.6325 156.14563 168.06563 176.10562 182.50562 194.54563 200.90563 208.70563 227.70563">Average Pass Ratio (%)</tspan></text>
<path transform="matrix(1,0,0,-1,0,329.90937)" stroke-width=".8" stroke-linecap="square" stroke-miterlimit="10" stroke-linejoin="miter" fill="none" stroke="#000000" d="M63.278127 45.509378V322.70939"/>
<path transform="matrix(1,0,0,-1,0,329.90937)" stroke-width=".8" stroke-linecap="square" stroke-miterlimit="10" stroke-linejoin="miter" fill="none" stroke="#000000" d="M342.27815 45.509378V322.70939"/>
<path transform="matrix(1,0,0,-1,0,329.90937)" stroke-width=".8" stroke-linecap="square" stroke-miterlimit="10" stroke-linejoin="miter" fill="none" stroke="#000000" d="M63.278127 45.509378H342.27815"/>
<path transform="matrix(1,0,0,-1,0,329.90937)" stroke-width=".8" stroke-linecap="square" stroke-miterlimit="10" stroke-linejoin="miter" fill="none" stroke="#000000" d="M63.278127 322.70939H342.27815"/>
</svg>
